<svg xmlns="http://www.w3.org/2000/svg" fill="none" viewBox="0 0 24 24" id="Postman--Streamline-Svg-Logos" height="24" width="24">
  <desc>
    Postman Streamline Icon: https://streamlinehq.com
  </desc>
  <path fill="#ff6c37" d="M13.740025 10.8628c0.124775 0 0.245975 0.017825 0.363625 0.053475 0.114075 0.0392 0.174675 0.0891 0.174675 0.149725 0 0.032075 -0.0107 0.06415 -0.0321 0.092675 -0.01425 0.028525 -0.046325 0.0499 -0.078425 0.0499 -0.046325 -0.01425 -0.092675 -0.032075 -0.139025 -0.053475 -0.089125 -0.0392 -0.185375 -0.0606 -0.285175 -0.057025 -0.1034 -0.003575 -0.210325 0.021375 -0.29945 0.07485 -0.078425 0.053475 -0.1212 0.146175 -0.114075 0.242425 -0.003575 0.0891 0.032075 0.174675 0.0998 0.2317 0.074875 0.0606 0.160425 0.110525 0.253125 0.139025 0.0998 0.03565 0.199625 0.074875 0.299425 0.121225 0.099825 0.0499 0.185375 0.12475 0.24955 0.21745 0.0713 0.114075 0.10695 0.245975 0.103375 0.381425 0 0.210325 -0.0606 0.37075 -0.185375 0.4777 -0.13545 0.114075 -0.310125 0.1711 -0.488375 0.1604 -0.160425 0.003575 -0.320825 -0.03565 -0.459875 -0.114075 -0.128325 -0.08555 -0.1925 -0.1604 -0.1925 -0.235275 0 -0.03565 0.014275 -0.067725 0.03565 -0.09625 0.017825 -0.02495 0.0428 -0.042775 0.074875 -0.046325 0.028525 0.00355 0.053475 0.0178 0.0713 0.0392 0.0285 0.02495 0.057025 0.053475 0.089125 0.08555 0.042775 0.039225 0.092675 0.06775 0.14615 0.08555 0.0713 0.028525 0.149725 0.039225 0.224575 0.039225 0.114075 0.007125 0.2246 -0.028525 0.3137 -0.09625 0.078425 -0.0713 0.121225 -0.17825 0.114075 -0.285175 0.003575 -0.1034 -0.032075 -0.19965 -0.103375 -0.2745 -0.0713 -0.0713 -0.15685 -0.124775 -0.2531 -0.160425 -0.0998 -0.03565 -0.196075 -0.07485 -0.29945 -0.117625 -0.0998 -0.0428 -0.185375 -0.10695 -0.2531 -0.1925 -0.0713 -0.09625 -0.1105 -0.2139 -0.103375 -0.3351 -0.003575 -0.09625 0.017825 -0.1925 0.0606 -0.281625 0.03565 -0.074875 0.092675 -0.135475 0.163975 -0.17825 0.06775 -0.0392 0.139025 -0.067725 0.2139 -0.089125 0.078425 -0.017825 0.15685 -0.0285 0.235275 -0.0285Zm-1.8252 0.16755c0.121225 0.106925 0.181825 0.27805 0.181825 0.5062v0.923275c0 0.231725 -0.0606 0.399275 -0.181825 0.506225 -0.285175 0.21745 -0.6773 0.21745 -0.9625 0 -0.117625 -0.10695 -0.178225 -0.2745 -0.178225 -0.506225v-0.923275c0 -0.231725 0.0606 -0.399275 0.178225 -0.5062 0.2852 -0.2139 0.677325 -0.2139 0.9625 0Zm8.8087 -0.160425c0.08555 0 0.139025 0.028525 0.15685 0.089125l0.630975 2.03195v0.017825c0 0.032075 -0.021375 0.0606 -0.0499 0.07485 -0.032075 0.0214 -0.0713 0.0321 -0.114075 0.028525 -0.039225 0.003575 -0.078425 -0.017825 -0.092675 -0.057025l-0.135475 -0.449175h-0.80565l-0.135475 0.449175c-0.010675 0.0392 -0.053475 0.06415 -0.092675 0.0606 -0.03565 0 -0.0713 -0.0107 -0.103375 -0.0321 -0.0321 -0.01425 -0.049925 -0.042775 -0.049925 -0.078425 0 -0.007125 0.003575 -0.017825 0.00715 -0.02495l0.6274 -2.02125c0.017825 -0.0606 0.0713 -0.089125 0.15685 -0.089125Zm-3.179825 0c0.082 0 0.149725 0.053475 0.20675 0.163975l0.48125 0.9233 0.484825 -0.9233c0.0606 -0.10695 0.12835 -0.163975 0.206775 -0.163975 0.0606 -0.0107 0.117625 0.032075 0.128325 0.092675 0.003575 0.0107 0.003575 0.0214 0 0.0321v2.02125c0 0.028525 -0.01425 0.053475 -0.039225 0.067725 -0.057025 0.0321 -0.12475 0.0321 -0.1818 0 -0.02495 -0.01425 -0.0392 -0.0392 -0.0392 -0.067725v-1.60775l-0.463425 0.869825c-0.014275 0.042775 -0.053475 0.074875 -0.099825 0.074875 -0.042775 -0.003575 -0.082 -0.0321 -0.09625 -0.074875l-0.463425 -0.887625v1.62555c0 0.028525 -0.014275 0.053475 -0.039225 0.067725 -0.02495 0.017825 -0.057025 0.028525 -0.08555 0.028525 -0.032075 0 -0.064175 -0.007125 -0.089125 -0.02495 -0.028525 -0.0107 -0.04635 -0.039225 -0.042775 -0.067725V10.99825c-0.0107 -0.0606 0.032075 -0.117625 0.0927 -0.128325 0.01425 -0.003575 0.0285 -0.003575 0.0392 0Zm4.983625 -0.003575c0.039225 0 0.078425 0.014275 0.110525 0.039225 0.03565 0.03565 0.067725 0.078425 0.08555 0.124775l0.766425 1.497225v-1.5721c0 -0.028525 0.014275 -0.053475 0.039225 -0.064175 0.057025 -0.032075 0.124775 -0.032075 0.1818 0 0.02495 0.014275 0.039225 0.039225 0.039225 0.064175v2.06405c0 0.0285 -0.014275 0.053475 -0.039225 0.067725 -0.028525 0.017825 -0.057025 0.02495 -0.089125 0.02495 -0.071275 -0.003575 -0.13545 -0.0499 -0.1604 -0.11765l-0.80565 -1.54355v1.568525c0 0.0285 -0.014275 0.053475 -0.03565 0.067725 -0.05705 0.032075 -0.124775 0.032075 -0.181825 0 -0.02495 -0.01425 -0.0392 -0.039225 -0.0392 -0.067725v-2.06405c0 -0.0606 0.042775 -0.089125 0.128325 -0.089125Zm-13.885 0h0.581075c0.1711 -0.007125 0.3422 0.049925 0.4741 0.160425 0.11765 0.10695 0.17825 0.2745 0.17825 0.50265v0.0285c0 0.22815 -0.0606 0.399275 -0.1818 0.506225 -0.135475 0.1105 -0.306575 0.1711 -0.48125 0.1604h-0.413525v0.794975c0 0.0285 -0.01425 0.053475 -0.039225 0.067725 -0.057025 0.032075 -0.12475 0.032075 -0.1818 0 -0.02495 -0.01425 -0.0392 -0.039225 -0.0392 -0.067725v-2.06405c0 -0.02495 0.010675 -0.04635 0.0285 -0.064175 0.0214 -0.017825 0.04635 -0.0285 0.074875 -0.02495Zm7.79985 0c0.0285 0 0.053475 0.0107 0.067725 0.03565 0.017825 0.0214 0.02495 0.049925 0.02495 0.078425 0 0.028525 -0.007125 0.0606 -0.02495 0.085575 -0.01425 0.02495 -0.039225 0.035625 -0.067725 0.035625h-0.4884v1.9179c0 0.0285 -0.01425 0.053475 -0.0392 0.067725 -0.05705 0.032075 -0.124775 0.032075 -0.1818 0 -0.02495 -0.01425 -0.039225 -0.039225 -0.039225 -0.067725v-1.9179h-0.4955c-0.028525 0 -0.053475 -0.010675 -0.06775 -0.035625 -0.017825 -0.024975 -0.0285 -0.053475 -0.0285 -0.085575 0 -0.0285 0.007125 -0.057025 0.02495 -0.078425 0.01425 -0.02495 0.0392 -0.03565 0.067725 -0.03565h1.2477Zm-5.005025 0.231725c-0.267375 0 -0.399275 0.1426 -0.399275 0.4349l-0.00355 0.92685c0 0.288775 0.1319 0.434925 0.402825 0.434925 0.1105 0.007125 0.21745 -0.032075 0.29945 -0.10695 0.078425 -0.089125 0.114075 -0.20675 0.10695 -0.327975v-0.92685c0.010675 -0.117625 -0.028525 -0.235275 -0.10695 -0.32795 -0.082 -0.074875 -0.18895 -0.114075 -0.29945 -0.10695Zm9.286375 0.14615 -0.345775 1.147875h0.688l-0.342225 -1.147875Zm-11.510825 -0.1426h-0.413525l-0.003575 0.90905h0.4171c0.1105 0.007125 0.221025 -0.0321 0.29945 -0.110525 0.078425 -0.0891 0.117625 -0.20675 0.106925 -0.32795v-0.03565c0.0107 -0.11765 -0.0285 -0.235275 -0.106925 -0.327975 -0.082 -0.07485 -0.18895 -0.114075 -0.29945 -0.10695Z" stroke-width="0.25"></path>
  <path fill="#ff6c37" d="M7.351775 12.452775c0.24955 -1.953525 -1.13005 -3.7395 -3.08 -3.98905 -1.9499675 -0.249525 -3.743075 1.13005 -3.992615 3.080025 -0.249537 1.94995 1.1300525 3.7395 3.080015 3.9926 1.953525 0.24955 3.7395 -1.13005 3.9926 -3.083575Z" stroke-width="0.25"></path>
  <path fill="#ffffff" d="m5.102275 10.723775 -1.50435 1.50435 -0.424225 -0.4242c1.4794 -1.4794 1.625575 -1.351075 1.928575 -1.08015Z" stroke-width="0.25"></path>
  <path fill="#ff6c37" d="M3.598075 12.263725c-0.0107 0 -0.017825 -0.003575 -0.02495 -0.0107l-0.427775 -0.424225c-0.014275 -0.01425 -0.014275 -0.03565 0 -0.0499 1.50435 -1.50435 1.6612 -1.361775 1.978475 -1.076575 0.007125 0.007125 0.0107 0.01425 0.0107 0.02495s-0.003575 0.017825 -0.0107 0.02495l-1.504375 1.5008c-0.00355 0.007125 -0.01425 0.0107 -0.021375 0.0107Zm-0.3743 -0.459875 0.3743 0.3743 1.450875 -1.450875c-0.2638 -0.235275 -0.442025 -0.306575 -1.825175 1.076575Z" stroke-width="0.25"></path>
  <path fill="#ffffff" d="m4.029225 12.659675 -0.40995 -0.40995 1.50435 -1.504375c0.402825 0.4064 -0.199625 1.0659 -1.0944 1.914325Z" stroke-width="0.25"></path>
  <path fill="#ff6c37" d="M4.029325 12.6952c-0.0107 0 -0.017825 -0.00355 -0.02495 -0.0107l-0.409975 -0.40995c-0.007125 -0.007125 -0.007125 -0.01425 -0.007125 -0.02495s0.003575 -0.017825 0.0107 -0.02495l1.50435 -1.50435c0.014275 -0.014275 0.03565 -0.014275 0.049925 0 0.092675 0.08555 0.142575 0.20675 0.139025 0.331525 -0.007125 0.3957 -0.4563 0.898325 -1.233425 1.632675 -0.0107 0.00715 -0.0214 0.0107 -0.028525 0.0107Zm-0.36005 -0.4456c0.22815 0.231725 0.3244 0.3244 0.36005 0.36005 0.598875 -0.570375 1.17995 -1.155 1.183525 -1.557825 0.00355 -0.0927 -0.0321 -0.185375 -0.0927 -0.256675l-1.450875 1.45445Z" stroke-width="0.25"></path>
  <path fill="#ffffff" d="m3.1807 11.814675 0.303025 0.303025c0.007125 0.007125 0.007125 0.01425 0 0.021375 -0.003575 0.003575 -0.003575 0.003575 -0.00715 0.003575l-0.6274 0.13545c-0.032075 0.003575 -0.0606 -0.017825 -0.067725 -0.0499 -0.003575 -0.017825 0.00355 -0.03565 0.01425 -0.04635l0.363625 -0.3636c0.007125 -0.00715 0.017825 -0.0107 0.021375 -0.003575Z" stroke-width="0.25"></path>
  <path fill="#ff6c37" d="M2.838525 12.313675c-0.05345 0 -0.092675 -0.042775 -0.092675 -0.09625 0 -0.02495 0.0107 -0.049925 0.028525 -0.06775l0.3636 -0.3636c0.0214 -0.017825 0.049925 -0.017825 0.0713 0l0.303025 0.303c0.021375 0.017825 0.021375 0.049925 0 0.0713 -0.00715 0.007125 -0.014275 0.0107 -0.024975 0.014275l-0.6274 0.13545c-0.007125 0 -0.01425 0.003575 -0.0214 0.003575Zm0.33155 -0.459875 -0.349375 0.34935c-0.007125 0.00715 -0.010675 0.017825 -0.00355 0.028525 0.00355 0.0107 0.01425 0.01425 0.02495 0.0107l0.5882 -0.128325 -0.260225 -0.26025Z" stroke-width="0.25"></path>
  <path fill="#ffffff" d="M5.89725 9.889625c-0.22815 -0.221025 -0.595325 -0.213875 -0.816325 0.017825 -0.221025 0.231725 -0.2139 0.595325 0.017825 0.81635 0.188925 0.1818 0.4741 0.2139 0.6987 0.078425l-0.4064 -0.4064 0.5062 -0.5062Z" stroke-width="0.25"></path>
  <path fill="#ff6c37" d="M5.49805 10.919775c-0.338675 0 -0.61315 -0.274475 -0.61315 -0.61315 0 -0.33865 0.274475 -0.61315 0.61315 -0.61315 0.15685 0 0.310125 0.0606 0.4242 0.171125 0.007125 0.007125 0.0107 0.01425 0.0107 0.02495s-0.003575 0.017825 -0.0107 0.02495l-0.48125 0.48125 0.377875 0.377875c0.01425 0.01425 0.01425 0.03565 0 0.0499l-0.007125 0.007125c-0.0927 0.05705 -0.2032 0.089125 -0.3137 0.089125Zm0 -1.151425c-0.29945 0 -0.541875 0.2424 -0.5383 0.54185 0 0.29945 0.2424 0.54185 0.54185 0.538275 0.082 0 0.163975 -0.017825 0.23885 -0.057025l-0.3743 -0.37075c-0.00715 -0.007125 -0.0107 -0.01425 -0.0107 -0.02495s0.00355 -0.017825 0.0107 -0.02495l0.477675 -0.4777c-0.09625 -0.081975 -0.21745 -0.12475 -0.345775 -0.12475Z" stroke-width="0.25"></path>
  <path fill="#ffffff" d="m5.908025 9.90045 -0.00715 -0.00715 -0.50975 0.50265 0.402825 0.402825c0.0392 -0.02495 0.078425 -0.053475 0.1105 -0.08555 0.22815 -0.2246 0.22815 -0.5882 0.003575 -0.812775Z" stroke-width="0.25"></path>
  <path fill="#ff6c37" d="M5.797375 10.837775c-0.010675 0 -0.017825 -0.003575 -0.02495 -0.0107l-0.406375 -0.406375c-0.00715 -0.00715 -0.0107 -0.014275 -0.0107 -0.024975 0 -0.010675 0.00355 -0.017825 0.0107 -0.02495l0.5062 -0.5062c0.01425 -0.01425 0.03565 -0.01425 0.0499 0l0.0107 0.007125c0.23885 0.23885 0.23885 0.62385 0.003575 0.86625 -0.03565 0.03565 -0.074875 0.06775 -0.11765 0.0927 -0.0107 0.00355 -0.017825 0.007125 -0.0214 0.007125Zm-0.356475 -0.44205 0.36005 0.36005c0.028525 -0.017825 0.057025 -0.042775 0.078425 -0.06415 0.2032 -0.2032 0.2139 -0.534725 0.017825 -0.748625l-0.4563 0.452725Z" stroke-width="0.25"></path>
  <path fill="#ffffff" d="M5.162875 10.787925c-0.08555 -0.08555 -0.2246 -0.08555 -0.31015 0l-1.343925 1.34395 0.224575 0.224575 1.422375 -1.2477c0.092675 -0.078425 0.0998 -0.21745 0.021375 -0.310125 -0.007125 -0.003575 -0.0107 -0.00715 -0.01425 -0.0107Z" stroke-width="0.25"></path>
  <path fill="#ff6c37" d="M3.729725 12.392225c-0.0107 0 -0.017825 -0.003575 -0.024975 -0.0107l-0.224575 -0.224575c-0.01425 -0.014275 -0.01425 -0.03565 0 -0.049925l1.34395 -1.343925c0.0998 -0.099825 0.260225 -0.099825 0.36005 0 0.0998 0.0998 0.0998 0.260225 0 0.36005 -0.003575 0.00355 -0.00715 0.007125 -0.0107 0.010675l-1.422375 1.2477c-0.00355 0.007125 -0.0107 0.0107 -0.021375 0.0107Zm-0.171125 -0.260225 0.174675 0.174675 1.397425 -1.2263c0.078425 -0.064175 0.08555 -0.181825 0.021375 -0.26025 -0.06415 -0.078425 -0.1818 -0.08555 -0.260225 -0.021375 -0.003575 0.00355 -0.007125 0.007125 -0.01425 0.010675l-1.319 1.322575Z" stroke-width="0.25"></path>
  <path fill="#ffffff" d="M2.4785175 13.661325c-0.01426 0.007125 -0.02139 0.021375 -0.017825 0.03565l0.0606075 0.25665c0.01425 0.03565 -0.007125 0.078425 -0.0463475 0.089125 -0.02852 0.0107 -0.0606025 0 -0.0784275 -0.021375l-0.39213 -0.388575 1.27978 -1.279775 0.442025 0.007125 0.29945 0.29945c-0.0713 0.0606 -0.50265 0.4777 -1.5471325 1.001725Z" stroke-width="0.25"></path>
  <path fill="#ff6c37" d="M2.4501975 14.0784c-0.02852 0 -0.0570375 -0.010675 -0.0748625 -0.032075L1.9867675 13.65775c-0.0071275 -0.007125 -0.0106925 -0.01425 -0.0106925 -0.02495s0.003565 -0.017825 0.0106925 -0.02495l1.2797825 -1.279775c0.007125 -0.007125 0.017825 -0.0107 0.02495 -0.0107l0.442025 0.007125c0.0107 0 0.017825 0.003575 0.024975 0.0107l0.299425 0.29945c0.00715 0.007125 0.0107 0.017825 0.0107 0.028525 0 0.0107 -0.00355 0.017825 -0.01425 0.02495l-0.02495 0.0214c-0.377875 0.331525 -0.891225 0.66305 -1.529325 0.980325l0.0606 0.2531c0.0107 0.04635 -0.0107 0.09625 -0.053475 0.1212 -0.02138 0.0107 -0.039205 0.01425 -0.0570275 0.01425Zm-0.3921325 -0.4456 0.3671775 0.363625c0.010695 0.017825 0.032085 0.02495 0.0499075 0.01425 0.017825 -0.0107 0.02495 -0.032075 0.01426 -0.0499l-0.0606025 -0.256675c-0.00713 -0.032075 0.00713 -0.0606 0.0356475 -0.07485 0.63097 -0.317275 1.140745 -0.64525 1.515045 -0.96965l-0.2638 -0.2638 -0.40995 -0.007125 -1.247685 1.244125Z" stroke-width="0.25"></path>
  <path fill="#ffffff" d="m1.7015375 13.939275 0.306575 -0.306575 0.4562975 0.4563 -0.727225 -0.049925c-0.032085 -0.00355 -0.0534725 -0.032075 -0.0499075 -0.06415 0 -0.014275 0.003565 -0.028525 0.01426 -0.03565Z" stroke-width="0.25"></path>
  <path fill="#ff6c37" d="m2.4642975 14.120975 -0.7307925 -0.0499c-0.0534725 -0.003575 -0.08912 -0.0499 -0.085555 -0.103375 0.003565 -0.0214 0.010695 -0.042775 0.02852 -0.05705l0.306575 -0.306575c0.0142575 -0.01425 0.0356475 -0.01425 0.0499075 0L2.48925 14.060375c0.010695 0.0107 0.01425 0.02495 0.00713 0.039225 -0.00713 0.01425 -0.017825 0.021375 -0.0320825 0.021375ZM2.0079975 13.6825l-0.28162 0.281625c-0.010695 0.007125 -0.010695 0.02495 0 0.032075 0.003565 0.003575 0.0071275 0.00715 0.0142575 0.00715l0.630975 0.042775L2.0079975 13.6825Z" stroke-width="0.25"></path>
  <path fill="#ff6c37" d="M3.15955 12.51705c-0.0214 0 -0.03565 -0.017825 -0.03565 -0.03565 0 -0.010675 0.003575 -0.0178 0.0107 -0.02495l0.345775 -0.345775c0.014275 -0.014275 0.03565 -0.014275 0.049925 0l0.224575 0.224575c0.0107 0.0107 0.01425 0.0214 0.0107 0.03565 -0.003575 0.0107 -0.014275 0.0214 -0.028525 0.02495l-0.570375 0.1212 -0.007125 0Zm0.3458 -0.331525 -0.2353 0.235275 0.385 -0.081975 -0.1497 -0.1533Z" stroke-width="0.25"></path>
  <path fill="#ffffff" d="m3.72625 12.36005 -0.392125 0.085575c-0.028525 0.007125 -0.057025 -0.0107 -0.06415 -0.039225 -0.003575 -0.017825 -0.000025 -0.03565 0.01425 -0.0499l0.21745 -0.21745 0.224575 0.221Z" stroke-width="0.25"></path>
  <path fill="#ff6c37" d="M3.32715 12.4814c-0.0499 0 -0.089125 -0.0392 -0.089125 -0.0891 0 -0.02495 0.0107 -0.04635 0.024975 -0.064175l0.21745 -0.21745c0.01425 -0.014275 0.03565 -0.014275 0.0499 0l0.2246 0.224575c0.010675 0.0107 0.01425 0.0214 0.010675 0.03565 -0.00355 0.0107 -0.01425 0.0214 -0.0285 0.02495l-0.39215 0.08555 -0.017825 0Zm0.17825 -0.295875 -0.1925 0.1925c-0.007125 0.007125 -0.007125 0.014275 -0.003575 0.0214 0.003575 0.007125 0.0107 0.0107 0.0214 0.0107l0.32795 -0.0713 -0.153275 -0.1533Z" stroke-width="0.25"></path>
  <path fill="#ff6c37" d="M5.911425 10.2426c-0.007125 -0.021375 -0.032075 -0.032075 -0.053475 -0.02495 -0.021375 0.007125 -0.032075 0.032075 -0.02495 0.053475 0 0.003575 0.003575 0.007125 0.003575 0.0107 0.021375 0.042775 0.01425 0.09625 -0.014275 0.13545 -0.01425 0.017825 -0.010675 0.042775 0.003575 0.05705 0.017825 0.01425 0.042775 0.0107 0.057025 -0.007125 0.053475 -0.06775 0.064175 -0.1533 0.028525 -0.2246Z" stroke-width="0.25"></path>
</svg>