<?xml version="1.0" encoding="utf-8"?>
<!-- Svg Vector Icons : http://www.onlinewebfonts.com/icon -->
<!DOCTYPE svg PUBLIC "-//W3C//DTD SVG 1.1//EN" "http://www.w3.org/Graphics/SVG/1.1/DTD/svg11.dtd">
<svg version="1.1" xmlns="http://www.w3.org/2000/svg" xmlns:xlink="http://www.w3.org/1999/xlink" x="0px" y="0px" viewBox="0 0 256 256" enable-background="new 0 0 256 256" xml:space="preserve">
<metadata> Svg Vector Icons : http://www.onlinewebfonts.com/icon </metadata>
<g><g><path fill="#000000" d="M128,10C62.8,10,10,62.8,10,128c0,65.2,52.8,118,118,118c65.2,0,118-52.8,118-118C246,62.8,193.2,10,128,10z M192.3,176.1c-8.3-23.3-30.8-40-57.1-40v20c0,3.7-2,7.1-5.3,8.8c-3.3,1.7-7.3,1.6-10.4-0.5l-60.7-40c-2.8-1.9-4.5-5-4.5-8.3s1.7-6.5,4.5-8.3l60.7-40c3.1-2,7.1-2.2,10.4-0.5c3.3,1.7,5.3,5.1,5.3,8.8v20c33.5,0,60.7,26.9,60.7,60C195.9,163.1,194.6,169.8,192.3,176.1L192.3,176.1z"/></g></g>
</svg>